<svg version="1.2" xmlns="http://www.w3.org/2000/svg" viewBox="0 0 33 33" width="33" height="33"><defs><clipPath clipPathUnits="userSpaceOnUse" id="cp1"><path d="m0 0h32.25v32.25h-32.25z"/></clipPath></defs><style>.a{fill:none;stroke:#e51735;stroke-linecap:round;stroke-linejoin:round;stroke-width:1.9}</style><g clip-path="url(#cp1)"><path class="a" d="m21.2 0.9h-14.5q-0.4 0-0.7 0.2-0.4 0.1-0.7 0.4-0.2 0.3-0.4 0.6-0.1 0.4-0.1 0.7v26.6q0 0.4 0.1 0.7 0.2 0.4 0.4 0.6 0.3 0.3 0.7 0.5 0.3 0.1 0.7 0.1h18.9q0.3 0 0.7-0.1 0.3-0.2 0.6-0.5 0.3-0.2 0.4-0.6 0.2-0.3 0.2-0.7v-22.2z"/><path class="a" d="m21.2 0.9v6.3h6.3z"/><path class="a" d="m16.1 15.8l-3 5.3h6.1z"/><path class="a" d="m16.1 15.8l1.4-2.4q0.2-0.4 0.3-0.8-0.1-0.5-0.3-0.9-0.2-0.3-0.6-0.6-0.3-0.2-0.8-0.2-0.4 0-0.8 0.2-0.4 0.3-0.6 0.6-0.2 0.4-0.2 0.9 0 0.4 0.2 0.8z"/><path class="a" d="m19.2 21.1l1.4 2.4c0.3 0.5 0.8 0.8 1.4 0.8 0.6 0 1.1-0.3 1.4-0.8 0.3-0.5 0.3-1.1 0-1.6-0.3-0.5-0.8-0.8-1.4-0.8z"/><path class="a" d="m13.1 21.1l-1.4 2.4q-0.3 0.4-0.6 0.6-0.4 0.2-0.8 0.2-0.5 0-0.9-0.2-0.3-0.2-0.6-0.6-0.2-0.3-0.2-0.8 0-0.4 0.2-0.8 0.3-0.4 0.6-0.6 0.4-0.2 0.9-0.2z"/></g></svg>