<svg xmlns="http://www.w3.org/2000/svg" width="67.279" height="68.034" viewBox="0 0 67.279 68.034">
  <g id="creativity_10129487" transform="translate(0.75 0.75)">
    <line id="Line_1773" data-name="Line 1773" x2="11.021" transform="translate(4.361 23.097)" fill="none" stroke="#e51735" stroke-linecap="round" stroke-linejoin="round" stroke-width="1.5"/>
    <path id="Path_3284" data-name="Path 3284" d="M52.464,144.317h0a5.511,5.511,0,0,1-5.511-5.511v-4.032a4.766,4.766,0,0,1,4.766-4.766h1.489a4.766,4.766,0,0,1,4.766,4.766v4.032A5.511,5.511,0,0,1,52.464,144.317Z" transform="translate(-42.592 -113.557)" fill="none" stroke="#e51735" stroke-linecap="round" stroke-linejoin="round" stroke-width="1.5"/>
    <path id="Path_3285" data-name="Path 3285" d="M56.556,383.883V399.32H45V383.883" transform="translate(-40.908 -332.786)" fill="none" stroke="#e51735" stroke-linecap="round" stroke-linejoin="round" stroke-width="1.5"/>
    <path id="Path_3286" data-name="Path 3286" d="M234.186,92.378l-4.094-5.043L226,92.378v50.865h8.189Z" transform="translate(-197.202 -76.708)" fill="none" stroke="#e51735" stroke-linecap="round" stroke-linejoin="round" stroke-width="1.5"/>
    <line id="Line_1774" data-name="Line 1774" x2="8.189" transform="translate(28.795 20.173)" fill="none" stroke="#e51735" stroke-linecap="round" stroke-linejoin="round" stroke-width="1.5"/>
    <line id="Line_1775" data-name="Line 1775" x2="8" transform="translate(29.527 58)" fill="none" stroke="#e51735" stroke-linecap="round" stroke-linejoin="round" stroke-width="1.5"/>
    <path id="Path_3287" data-name="Path 3287" d="M43.8,234.861H20.72a5.72,5.72,0,0,0-5.72,5.72V255.2H34.743V242.367H43.8" transform="translate(-15 -204.101)" fill="none" stroke="#e51735" stroke-linecap="round" stroke-linejoin="round" stroke-width="1.5"/>
    <line id="Line_1776" data-name="Line 1776" x1="11.021" transform="translate(50.397 23.097)" fill="none" stroke="#e51735" stroke-linecap="round" stroke-linejoin="round" stroke-width="1.5"/>
    <path id="Path_3288" data-name="Path 3288" d="M389.8,144.317h0a5.511,5.511,0,0,0,5.511-5.511v-4.032a4.766,4.766,0,0,0-4.766-4.766h-1.489a4.766,4.766,0,0,0-4.766,4.766v4.032A5.511,5.511,0,0,0,389.8,144.317Z" transform="translate(-333.888 -113.557)" fill="none" stroke="#e51735" stroke-linecap="round" stroke-linejoin="round" stroke-width="1.5"/>
    <path id="Path_3289" data-name="Path 3289" d="M382.333,383.883V399.32h11.554V383.883" transform="translate(-332.202 -332.786)" fill="none" stroke="#e51735" stroke-linecap="round" stroke-linejoin="round" stroke-width="1.5"/>
    <path id="Path_3290" data-name="Path 3290" d="M286,234.861h23.075a5.72,5.72,0,0,1,5.72,5.72V255.2H295.052V242.367H286" transform="translate(-249.016 -204.101)" fill="none" stroke="#e51735" stroke-linecap="round" stroke-linejoin="round" stroke-width="1.5"/>
    <line id="Line_1777" data-name="Line 1777" x2="4" transform="translate(30.527 0)" fill="none" stroke="#e51735" stroke-linecap="round" stroke-linejoin="round" stroke-width="1.5"/>
    <line id="Line_1778" data-name="Line 1778" x2="4" transform="translate(22.527 5)" fill="none" stroke="#e51735" stroke-linecap="round" stroke-linejoin="round" stroke-width="1.5"/>
    <line id="Line_1779" data-name="Line 1779" x2="3" transform="translate(39.527 5)" fill="none" stroke="#e51735" stroke-linecap="round" stroke-linejoin="round" stroke-width="1.5"/>
  </g>
</svg>
