<svg xmlns="http://www.w3.org/2000/svg" width="60.575" height="68.645" viewBox="0 0 60.575 68.645">
  <g id="analysis_8101405" transform="translate(0.76 0.75)">
    <g id="Group_30056" data-name="Group 30056">
      <path id="Path_3291" data-name="Path 3291" d="M216.543,234.334l-6.6,6.6-3.639-3.639-3.639,3.639" transform="translate(-180.419 -203.719)" fill="none" stroke="#e51735" stroke-linecap="round" stroke-linejoin="round" stroke-width="1.5" fill-rule="evenodd"/>
      <path id="Path_3292" data-name="Path 3292" d="M279.334,229.334h4.094v4.094" transform="translate(-246.622 -199.401)" fill="none" stroke="#e51735" stroke-linecap="round" stroke-linejoin="round" stroke-width="1.5" fill-rule="evenodd"/>
      <path id="Path_3293" data-name="Path 3293" d="M234.413,10a3.428,3.428,0,0,1,3.412,3.424v1.113a3.412,3.412,0,1,1-6.824,0V13.424A3.428,3.428,0,0,1,234.413,10Z" transform="translate(-204.885 -10)" fill="none" stroke="#e51735" stroke-linecap="round" stroke-linejoin="round" stroke-width="1.5" fill-rule="evenodd"/>
      <path id="Path_3294" data-name="Path 3294" d="M206,79.323a6.824,6.824,0,1,1,13.647,0" transform="translate(-183.297 -63.97)" fill="none" stroke="#e51735" stroke-linecap="round" stroke-linejoin="round" stroke-width="1.5" fill-rule="evenodd"/>
      <path id="Path_3295" data-name="Path 3295" d="M40.091,122.242A3.428,3.428,0,0,1,44.762,121l.964.557a3.412,3.412,0,1,1-3.412,5.909l-.964-.557A3.428,3.428,0,0,1,40.091,122.242Z" transform="translate(-39.638 -105.456)" fill="none" stroke="#e51735" stroke-linecap="round" stroke-linejoin="round" stroke-width="1.5" fill-rule="evenodd"/>
      <path id="Path_3296" data-name="Path 3296" d="M93.79,151.976a6.824,6.824,0,1,1,6.824-11.819" transform="translate(-83.453 -121.604)" fill="none" stroke="#e51735" stroke-linecap="round" stroke-linejoin="round" stroke-width="1.5" fill-rule="evenodd"/>
      <path id="Path_3297" data-name="Path 3297" d="M40.091,343.058a3.428,3.428,0,0,1,1.259-4.667l.964-.557a3.412,3.412,0,1,1,3.412,5.91l-.964.557A3.428,3.428,0,0,1,40.091,343.058Z" transform="translate(-39.638 -292.699)" fill="none" stroke="#e51735" stroke-linecap="round" stroke-linejoin="round" stroke-width="1.5" fill-rule="evenodd"/>
      <path id="Path_3298" data-name="Path 3298" d="M100.614,291.27a6.824,6.824,0,0,1-6.824-11.819" transform="translate(-83.453 -242.678)" fill="none" stroke="#e51735" stroke-linecap="round" stroke-linejoin="round" stroke-width="1.5" fill-rule="evenodd"/>
      <path id="Path_3299" data-name="Path 3299" d="M234.413,451.631A3.428,3.428,0,0,1,231,448.207v-1.113a3.412,3.412,0,1,1,6.824,0v1.113A3.428,3.428,0,0,1,234.413,451.631Z" transform="translate(-204.885 -384.486)" fill="none" stroke="#e51735" stroke-linecap="round" stroke-linejoin="round" stroke-width="1.5" fill-rule="evenodd"/>
      <path id="Path_3300" data-name="Path 3300" d="M219.648,389.5a6.824,6.824,0,1,1-13.647,0" transform="translate(-183.297 -337.711)" fill="none" stroke="#e51735" stroke-linecap="round" stroke-linejoin="round" stroke-width="1.5" fill-rule="evenodd"/>
      <path id="Path_3301" data-name="Path 3301" d="M422.554,343.057a3.428,3.428,0,0,1-4.671,1.243l-.964-.557a3.412,3.412,0,1,1,3.412-5.909l.964.557A3.428,3.428,0,0,1,422.554,343.057Z" transform="translate(-363.952 -292.698)" fill="none" stroke="#e51735" stroke-linecap="round" stroke-linejoin="round" stroke-width="1.5" fill-rule="evenodd"/>
      <path id="Path_3302" data-name="Path 3302" d="M353.441,279.451a6.824,6.824,0,1,1-6.824,11.819" transform="translate(-304.723 -242.678)" fill="none" stroke="#e51735" stroke-linecap="round" stroke-linejoin="round" stroke-width="1.5" fill-rule="evenodd"/>
      <path id="Path_3303" data-name="Path 3303" d="M422.554,122.241a3.428,3.428,0,0,1-1.259,4.667l-.964.557a3.412,3.412,0,1,1-3.412-5.91l.964-.557A3.428,3.428,0,0,1,422.554,122.241Z" transform="translate(-363.952 -105.455)" fill="none" stroke="#e51735" stroke-linecap="round" stroke-linejoin="round" stroke-width="1.5" fill-rule="evenodd"/>
      <path id="Path_3304" data-name="Path 3304" d="M346.617,140.157a6.824,6.824,0,1,1,6.824,11.819" transform="translate(-304.723 -121.604)" fill="none" stroke="#e51735" stroke-linecap="round" stroke-linejoin="round" stroke-width="1.5" fill-rule="evenodd"/>
      <circle id="Ellipse_21" data-name="Ellipse 21" cx="19.106" cy="19.106" r="19.106" transform="translate(2.507 33.572) rotate(-45)" fill="none" stroke="#e51735" stroke-linecap="round" stroke-linejoin="round" stroke-width="1.5"/>
      <path id="Path_3305" data-name="Path 3305" d="M162.018,158.331A13.648,13.648,0,1,1,156,169.648c0-.319.012-.636.033-.95" transform="translate(-140.121 -136.076)" fill="none" stroke="#e51735" stroke-linecap="round" stroke-linejoin="round" stroke-width="1.5" fill-rule="evenodd"/>
      <line id="Line_1780" data-name="Line 1780" y1="0.001" transform="translate(17.709 26.748)" fill="none" stroke="#e51735" stroke-linecap="round" stroke-linejoin="round" stroke-width="1.5"/>
    </g>
  </g>
</svg>
