<svg version="1.2" xmlns="http://www.w3.org/2000/svg" viewBox="0 0 690 160" width="690" height="160"><defs><clipPath clipPathUnits="userSpaceOnUse" id="cp1"><path d="m683.97 6.71v723.62h-678.48v-723.62z"/></clipPath><clipPath clipPathUnits="userSpaceOnUse" id="cp2"><path d="m583.15 6.71v577.32h-577.66v-577.32z"/></clipPath><clipPath clipPathUnits="userSpaceOnUse" id="cp3"><path d="m1160.93 6.71v577.32h-577.65v-577.32z"/></clipPath><clipPath clipPathUnits="userSpaceOnUse" id="cp4"><path d="m583.15 584.17v577.32h-577.66v-577.32z"/></clipPath><clipPath clipPathUnits="userSpaceOnUse" id="cp5"><path d="m1160.93 584.17v577.32h-577.65v-577.32z"/></clipPath></defs><style>.a{fill:none;stroke:#33543f;stroke-width:1.2}.b{fill:none}.c{fill:#253e2b}</style><g clip-path="url(#cp1)"><g clip-path="url(#cp2)"><path fill-rule="evenodd" class="a" d="m4.6 35.1l29.3-29.2"/><path fill-rule="evenodd" class="a" d="m3.7 8.5l3.6-3.6"/><path fill-rule="evenodd" class="a" d="m4.7 62.5l56.6-56.6"/><path fill-rule="evenodd" class="a" d="m4.6 90l84.3-84.1"/><path fill-rule="evenodd" class="a" d="m4.6 117.6l111.8-111.7"/><path fill-rule="evenodd" class="a" d="m4.6 145l139.3-139.1"/><path fill-rule="evenodd" class="a" d="m4.6 172.5l166.8-166.6"/><path fill-rule="evenodd" class="a" d="m4.6 200l194.3-194.2"/><path fill-rule="evenodd" class="a" d="m4.6 227.5l221.9-221.8"/><path fill-rule="evenodd" class="a" d="m4.6 255l249.3-249.1"/><path fill-rule="evenodd" class="a" d="m4.6 282.5l277-276.9"/><path fill-rule="evenodd" class="a" d="m4.6 310l304.3-304.1"/><path fill-rule="evenodd" class="a" d="m4.6 337.5l331.9-331.7"/><path fill-rule="evenodd" class="a" d="m4.6 365l359.4-359.2"/><path fill-rule="evenodd" class="a" d="m4.6 392.5l387.3-387.1"/><path fill-rule="evenodd" class="a" d="m4.6 419.9l414.8-414.5"/><path fill-rule="evenodd" class="a" d="m4.6 447.4l442.3-442"/><path fill-rule="evenodd" class="a" d="m4.6 474.9l469.8-469.5"/><path fill-rule="evenodd" class="a" d="m4.6 502.4l496.9-496.6"/><path fill-rule="evenodd" class="a" d="m4.6 529.9l524.6-524.3"/><path fill-rule="evenodd" class="a" d="m4.6 557.4l552.3-552"/><path fill-rule="evenodd" class="a" d="m4.6 584.9l579.3-579"/><path fill-rule="evenodd" class="a" d="m32.2 584.8l551.7-551.4"/><path fill-rule="evenodd" class="a" d="m59.7 584.8l524.3-523.9"/><path fill-rule="evenodd" class="a" d="m87.2 584.8l496.7-496.4"/><path fill-rule="evenodd" class="a" d="m114.8 584.8l469.1-468.9"/><path fill-rule="evenodd" class="a" d="m142.2 584.8l441.7-441.4"/><path fill-rule="evenodd" class="a" d="m169.8 584.8l414.1-413.9"/><path fill-rule="evenodd" class="a" d="m197.2 584.8l386.7-386.4"/><path fill-rule="evenodd" class="a" d="m224.8 584.8l359.1-358.9"/><path fill-rule="evenodd" class="a" d="m252.3 584.8l331.7-331.5"/><path fill-rule="evenodd" class="a" d="m279.8 584.8l304.1-303.9"/><path fill-rule="evenodd" class="a" d="m307.3 584.8l276.5-276.4"/><path fill-rule="evenodd" class="a" d="m334.8 584.9l249.1-249"/><path fill-rule="evenodd" class="a" d="m362.3 584.8l221.6-221.4"/><path fill-rule="evenodd" class="a" d="m389.8 584.8l194.1-194"/><path fill-rule="evenodd" class="a" d="m417.3 584.8l166.6-166.5"/><path fill-rule="evenodd" class="a" d="m444.8 584.8l139.1-138.9"/><path fill-rule="evenodd" class="a" d="m472.3 584.9l111.7-111.7"/><path fill-rule="evenodd" class="a" d="m499.8 584.8l84.1-84"/><path fill-rule="evenodd" class="a" d="m527.4 584.8l56.4-56.4"/><path fill-rule="evenodd" class="a" d="m554.8 584.8l29.1-29"/><path fill-rule="evenodd" class="a" d="m581.8 585.3l2.7-2.5"/></g><g clip-path="url(#cp3)"><path fill-rule="evenodd" class="a" d="m582.4 35.1l29.2-29.2"/><path fill-rule="evenodd" class="a" d="m581.5 8.5l3.6-3.6"/><path fill-rule="evenodd" class="a" d="m582.5 62.5l56.6-56.6"/><path fill-rule="evenodd" class="a" d="m582.4 90l84.2-84.1"/><path fill-rule="evenodd" class="a" d="m582.4 117.6l111.7-111.7"/><path fill-rule="evenodd" class="a" d="m582.4 145l139.3-139.1"/><path fill-rule="evenodd" class="a" d="m582.4 172.5l166.8-166.6"/><path fill-rule="evenodd" class="a" d="m582.4 200l194.3-194.2"/><path fill-rule="evenodd" class="a" d="m582.4 227.5l221.9-221.8"/><path fill-rule="evenodd" class="a" d="m582.4 255l249.3-249.1"/><path fill-rule="evenodd" class="a" d="m582.4 282.5l277-276.9"/><path fill-rule="evenodd" class="a" d="m582.4 310l304.3-304.1"/><path fill-rule="evenodd" class="a" d="m582.4 337.5l331.9-331.7"/><path fill-rule="evenodd" class="a" d="m582.4 365l359.4-359.2"/><path fill-rule="evenodd" class="a" d="m582.4 392.5l387.3-387.1"/><path fill-rule="evenodd" class="a" d="m582.4 419.9l414.8-414.5"/><path fill-rule="evenodd" class="a" d="m582.4 447.4l442.3-442"/><path fill-rule="evenodd" class="a" d="m582.4 474.9l469.8-469.5"/><path fill-rule="evenodd" class="a" d="m582.4 502.4l496.9-496.6"/><path fill-rule="evenodd" class="a" d="m582.4 529.9l524.6-524.3"/><path fill-rule="evenodd" class="a" d="m582.4 557.4l552.3-552"/><path fill-rule="evenodd" class="a" d="m582.4 584.9l579.3-579"/><path fill-rule="evenodd" class="a" d="m610 584.8l551.7-551.4"/><path fill-rule="evenodd" class="a" d="m637.5 584.8l524.2-523.9"/><path fill-rule="evenodd" class="a" d="m665 584.8l496.7-496.4"/><path fill-rule="evenodd" class="a" d="m692.6 584.8l469.1-468.9"/><path fill-rule="evenodd" class="a" d="m720 584.8l441.7-441.4"/><path fill-rule="evenodd" class="a" d="m747.6 584.8l414.1-413.9"/><path fill-rule="evenodd" class="a" d="m775 584.8l386.7-386.4"/><path fill-rule="evenodd" class="a" d="m802.6 584.8l359.1-358.9"/><path fill-rule="evenodd" class="a" d="m830 584.8l331.8-331.5"/><path fill-rule="evenodd" class="a" d="m857.6 584.8l304.1-303.9"/><path fill-rule="evenodd" class="a" d="m885.1 584.8l276.5-276.4"/><path fill-rule="evenodd" class="a" d="m912.5 584.9l249.2-249"/><path fill-rule="evenodd" class="a" d="m940.1 584.8l221.6-221.4"/><path fill-rule="evenodd" class="a" d="m967.6 584.8l194.1-194"/><path fill-rule="evenodd" class="a" d="m995.1 584.8l166.6-166.5"/><path fill-rule="evenodd" class="a" d="m1022.6 584.8l139-138.9"/><path fill-rule="evenodd" class="a" d="m1050.1 584.9l111.7-111.7"/><path fill-rule="evenodd" class="a" d="m1077.6 584.8l84.1-84"/><path fill-rule="evenodd" class="a" d="m1105.2 584.8l56.4-56.4"/><path fill-rule="evenodd" class="a" d="m1132.6 584.8l29.1-29"/><path fill-rule="evenodd" class="a" d="m1159.6 585.3l2.7-2.5"/></g><g clip-path="url(#cp4)"><path fill-rule="evenodd" class="a" d="m4.6 612.5l29.3-29.2"/><path fill-rule="evenodd" class="a" d="m3.7 586l3.6-3.6"/><path fill-rule="evenodd" class="a" d="m4.7 639.9l56.6-56.6"/><path fill-rule="evenodd" class="a" d="m4.6 667.5l84.3-84.2"/><path fill-rule="evenodd" class="a" d="m4.6 695l111.8-111.7"/><path fill-rule="evenodd" class="a" d="m4.6 722.5l139.3-139.2"/><path fill-rule="evenodd" class="a" d="m4.6 750l166.8-166.7"/><path fill-rule="evenodd" class="a" d="m4.6 777.5l194.3-194.2"/><path fill-rule="evenodd" class="a" d="m4.6 805l221.9-221.8"/><path fill-rule="evenodd" class="a" d="m4.6 832.4l249.3-249.1"/><path fill-rule="evenodd" class="a" d="m4.6 859.9l277-276.8"/><path fill-rule="evenodd" class="a" d="m4.6 887.4l304.3-304.1"/><path fill-rule="evenodd" class="a" d="m4.6 914.9l331.9-331.6"/><path fill-rule="evenodd" class="a" d="m4.6 942.4l359.4-359.1"/><path fill-rule="evenodd" class="a" d="m4.6 969.9l387.3-387"/><path fill-rule="evenodd" class="a" d="m4.6 997.4l414.8-414.5"/><path fill-rule="evenodd" class="a" d="m4.6 1024.9l442.3-442"/><path fill-rule="evenodd" class="a" d="m4.6 1052.4l469.8-469.5"/><path fill-rule="evenodd" class="a" d="m4.6 1079.9l496.9-496.6"/><path fill-rule="evenodd" class="a" d="m4.6 1107.4l524.6-524.3"/><path fill-rule="evenodd" class="a" d="m4.6 1134.9l552.3-552"/><path fill-rule="evenodd" class="a" d="m4.6 1162.3l579.3-578.9"/><path fill-rule="evenodd" class="a" d="m32.2 1162.3l551.7-551.4"/><path fill-rule="evenodd" class="a" d="m59.7 1162.3l524.3-524"/><path fill-rule="evenodd" class="a" d="m87.2 1162.3l496.7-496.4"/><path fill-rule="evenodd" class="a" d="m114.8 1162.2l469.1-468.9"/><path fill-rule="evenodd" class="a" d="m142.2 1162.3l441.7-441.4"/><path fill-rule="evenodd" class="a" d="m169.8 1162.3l414.1-414"/><path fill-rule="evenodd" class="a" d="m197.2 1162.3l386.7-386.5"/><path fill-rule="evenodd" class="a" d="m224.8 1162.3l359.1-358.9"/><path fill-rule="evenodd" class="a" d="m252.3 1162.3l331.7-331.5"/><path fill-rule="evenodd" class="a" d="m279.8 1162.3l304.1-303.9"/><path fill-rule="evenodd" class="a" d="m307.3 1162.3l276.5-276.4"/><path fill-rule="evenodd" class="a" d="m334.8 1162.3l249.1-249"/><path fill-rule="evenodd" class="a" d="m362.3 1162.3l221.6-221.5"/><path fill-rule="evenodd" class="a" d="m389.8 1162.2l194.1-193.9"/><path fill-rule="evenodd" class="a" d="m417.3 1162.3l166.6-166.5"/><path fill-rule="evenodd" class="a" d="m444.8 1162.3l139.1-139"/><path fill-rule="evenodd" class="a" d="m472.3 1162.3l111.7-111.6"/><path fill-rule="evenodd" class="a" d="m499.8 1162.3l84.1-84"/><path fill-rule="evenodd" class="a" d="m527.4 1162.2l56.4-56.4"/><path fill-rule="evenodd" class="a" d="m554.8 1162.3l29.1-29.1"/><path fill-rule="evenodd" class="a" d="m581.8 1162.7l2.7-2.4"/></g><g clip-path="url(#cp5)"><path fill-rule="evenodd" class="a" d="m582.4 612.5l29.2-29.2"/><path fill-rule="evenodd" class="a" d="m581.5 586l3.6-3.6"/><path fill-rule="evenodd" class="a" d="m582.5 639.9l56.6-56.6"/><path fill-rule="evenodd" class="a" d="m582.4 667.5l84.2-84.2"/><path fill-rule="evenodd" class="a" d="m582.4 695l111.7-111.7"/><path fill-rule="evenodd" class="a" d="m582.4 722.5l139.3-139.2"/><path fill-rule="evenodd" class="a" d="m582.4 750l166.8-166.7"/><path fill-rule="evenodd" class="a" d="m582.4 777.5l194.3-194.2"/><path fill-rule="evenodd" class="a" d="m582.4 805l221.9-221.8"/><path fill-rule="evenodd" class="a" d="m582.4 832.4l249.3-249.1"/><path fill-rule="evenodd" class="a" d="m582.4 859.9l277-276.8"/><path fill-rule="evenodd" class="a" d="m582.4 887.4l304.3-304.1"/><path fill-rule="evenodd" class="a" d="m582.4 914.9l331.9-331.6"/><path fill-rule="evenodd" class="a" d="m582.4 942.4l359.4-359.1"/><path fill-rule="evenodd" class="a" d="m582.4 969.9l387.3-387"/><path fill-rule="evenodd" class="a" d="m582.4 997.4l414.8-414.5"/><path fill-rule="evenodd" class="a" d="m582.4 1024.9l442.3-442"/><path fill-rule="evenodd" class="a" d="m582.4 1052.4l469.8-469.5"/><path fill-rule="evenodd" class="a" d="m582.4 1079.9l496.9-496.6"/><path fill-rule="evenodd" class="a" d="m582.4 1107.4l524.6-524.3"/><path fill-rule="evenodd" class="a" d="m582.4 1134.9l552.3-552"/><path fill-rule="evenodd" class="a" d="m582.4 1162.3l579.3-578.9"/><path fill-rule="evenodd" class="a" d="m610 1162.3l551.7-551.4"/><path fill-rule="evenodd" class="a" d="m637.5 1162.3l524.2-524"/><path fill-rule="evenodd" class="a" d="m665 1162.3l496.7-496.4"/><path fill-rule="evenodd" class="a" d="m692.6 1162.2l469.1-468.9"/><path fill-rule="evenodd" class="a" d="m720 1162.3l441.7-441.4"/><path fill-rule="evenodd" class="a" d="m747.6 1162.3l414.1-414"/><path fill-rule="evenodd" class="a" d="m775 1162.3l386.7-386.5"/><path fill-rule="evenodd" class="a" d="m802.6 1162.3l359.1-358.9"/><path fill-rule="evenodd" class="a" d="m830 1162.3l331.8-331.5"/><path fill-rule="evenodd" class="a" d="m857.6 1162.3l304.1-303.9"/><path fill-rule="evenodd" class="a" d="m885.1 1162.3l276.5-276.4"/><path fill-rule="evenodd" class="a" d="m912.5 1162.3l249.2-249"/><path fill-rule="evenodd" class="a" d="m940.1 1162.3l221.6-221.5"/><path fill-rule="evenodd" class="a" d="m967.6 1162.2l194.1-193.9"/><path fill-rule="evenodd" class="a" d="m995.1 1162.3l166.6-166.5"/><path fill-rule="evenodd" class="a" d="m1022.6 1162.3l139-139"/><path fill-rule="evenodd" class="a" d="m1050.1 1162.3l111.7-111.6"/><path fill-rule="evenodd" class="a" d="m1077.6 1162.3l84.1-84"/><path fill-rule="evenodd" class="a" d="m1105.2 1162.2l56.4-56.4"/><path fill-rule="evenodd" class="a" d="m1132.6 1162.3l29.1-29.1"/><path fill-rule="evenodd" class="a" d="m1159.6 1162.7l2.7-2.4"/></g></g><path fill-rule="evenodd" class="b" d="m684 6.7v723.6h-678.5v-723.6z"/><path fill-rule="evenodd" class="a" d="m683.4 7.3v722.4h-677.3v-722.4z"/><path fill-rule="evenodd" class="c" d="m13.4 0v13.4h-13.4v-13.4z"/><path fill-rule="evenodd" class="c" d="m691.2-1.2v13.4h-13.4v-13.4z"/></svg>