<svg version="1.2" xmlns="http://www.w3.org/2000/svg" viewBox="0 0 377 1021" width="377" height="1021"><defs><clipPath clipPathUnits="userSpaceOnUse" id="cp1"><path d="m371.45 4.99v1009.11h-371.14v-1009.11z"/></clipPath><clipPath clipPathUnits="userSpaceOnUse" id="cp2"><path d="m371.45 4.99v481.34h-481.34v-481.34z"/></clipPath><clipPath clipPathUnits="userSpaceOnUse" id="cp3"><path d="m371.45 486.44v481.33h-481.34v-481.33z"/></clipPath><clipPath clipPathUnits="userSpaceOnUse" id="cp4"><path d="m371.45 967.88v481.33h-481.34v-481.33z"/></clipPath></defs><style>.a{fill:none;stroke:#33543f;stroke-width:1}.b{fill:none}.c{fill:#253e2b}</style><g clip-path="url(#cp1)"><g clip-path="url(#cp2)"><path fill-rule="evenodd" class="a" d="m372.2 28.6l-24.4-24.3"/><path fill-rule="evenodd" class="a" d="m372.9 6.5l-3-3"/><path fill-rule="evenodd" class="a" d="m372.1 51.5l-47.2-47.2"/><path fill-rule="evenodd" class="a" d="m372.2 74.5l-70.2-70.2"/><path fill-rule="evenodd" class="a" d="m372.2 97.4l-93.1-93.1"/><path fill-rule="evenodd" class="a" d="m372.2 120.3l-116.1-116"/><path fill-rule="evenodd" class="a" d="m372.2 143.2l-139-138.9"/><path fill-rule="evenodd" class="a" d="m372.2 166.2l-161.9-161.9"/><path fill-rule="evenodd" class="a" d="m372.2 189.1l-184.9-184.9"/><path fill-rule="evenodd" class="a" d="m372.2 212l-207.7-207.7"/><path fill-rule="evenodd" class="a" d="m372.2 234.9l-230.9-230.8"/><path fill-rule="evenodd" class="a" d="m372.2 257.8l-253.6-253.5"/><path fill-rule="evenodd" class="a" d="m372.2 280.8l-276.6-276.6"/><path fill-rule="evenodd" class="a" d="m372.2 303.7l-299.5-299.4"/><path fill-rule="evenodd" class="a" d="m372.2 326.6l-322.7-322.7"/><path fill-rule="evenodd" class="a" d="m372.2 349.5l-345.6-345.6"/><path fill-rule="evenodd" class="a" d="m372.2 372.4l-368.5-368.5"/><path fill-rule="evenodd" class="a" d="m372.2 395.4l-391.5-391.5"/><path fill-rule="evenodd" class="a" d="m372.2 418.3l-414.1-414"/><path fill-rule="evenodd" class="a" d="m372.2 441.2l-437.2-437.1"/><path fill-rule="evenodd" class="a" d="m372.2 464.1l-460.2-460.2"/><path fill-rule="evenodd" class="a" d="m372.2 487l-482.7-482.7"/><path fill-rule="evenodd" class="a" d="m349.2 487l-459.7-459.7"/><path fill-rule="evenodd" class="a" d="m326.3 487l-436.9-436.8"/><path fill-rule="evenodd" class="a" d="m303.3 487l-413.8-413.9"/><path fill-rule="evenodd" class="a" d="m280.4 486.9l-390.9-390.9"/><path fill-rule="evenodd" class="a" d="m257.5 487l-368-368"/><path fill-rule="evenodd" class="a" d="m234.6 487l-345.1-345.1"/><path fill-rule="evenodd" class="a" d="m211.7 487l-322.2-322.2"/><path fill-rule="evenodd" class="a" d="m188.7 487l-299.2-299.3"/><path fill-rule="evenodd" class="a" d="m165.8 487l-276.4-276.4"/><path fill-rule="evenodd" class="a" d="m142.9 487l-253.4-253.4"/><path fill-rule="evenodd" class="a" d="m120 487l-230.5-230.5"/><path fill-rule="evenodd" class="a" d="m97.1 487l-207.6-207.6"/><path fill-rule="evenodd" class="a" d="m74.1 487l-184.6-184.7"/><path fill-rule="evenodd" class="a" d="m51.2 487l-161.7-161.8"/><path fill-rule="evenodd" class="a" d="m28.3 487l-138.8-138.8"/><path fill-rule="evenodd" class="a" d="m5.4 487l-115.9-115.9"/><path fill-rule="evenodd" class="a" d="m-17.5 487l-93.1-93.1"/><path fill-rule="evenodd" class="a" d="m-40.5 487l-70-70"/><path fill-rule="evenodd" class="a" d="m-63.4 487l-47.1-47.1"/><path fill-rule="evenodd" class="a" d="m-86.3 487l-24.2-24.2"/><path fill-rule="evenodd" class="a" d="m-108.8 487.4l-2.2-2.1"/></g><g clip-path="url(#cp3)"><path fill-rule="evenodd" class="a" d="m372.2 510.1l-24.4-24.4"/><path fill-rule="evenodd" class="a" d="m372.9 487.9l-3-3"/><path fill-rule="evenodd" class="a" d="m372.1 532.9l-47.2-47.2"/><path fill-rule="evenodd" class="a" d="m372.2 555.9l-70.2-70.2"/><path fill-rule="evenodd" class="a" d="m372.2 578.9l-93.1-93.2"/><path fill-rule="evenodd" class="a" d="m372.2 601.8l-116.1-116.1"/><path fill-rule="evenodd" class="a" d="m372.2 624.7l-139-139"/><path fill-rule="evenodd" class="a" d="m372.2 647.6l-161.9-161.9"/><path fill-rule="evenodd" class="a" d="m372.2 670.5l-184.9-184.9"/><path fill-rule="evenodd" class="a" d="m372.2 693.4l-207.7-207.7"/><path fill-rule="evenodd" class="a" d="m372.2 716.4l-230.9-230.9"/><path fill-rule="evenodd" class="a" d="m372.2 739.3l-253.6-253.6"/><path fill-rule="evenodd" class="a" d="m372.2 762.2l-276.6-276.5"/><path fill-rule="evenodd" class="a" d="m372.2 785.1l-299.5-299.4"/><path fill-rule="evenodd" class="a" d="m372.2 808.1l-322.7-322.7"/><path fill-rule="evenodd" class="a" d="m372.2 831l-345.6-345.6"/><path fill-rule="evenodd" class="a" d="m372.2 853.9l-368.5-368.5"/><path fill-rule="evenodd" class="a" d="m372.2 876.8l-391.5-391.4"/><path fill-rule="evenodd" class="a" d="m372.2 899.7l-414.1-414"/><path fill-rule="evenodd" class="a" d="m372.2 922.7l-437.2-437.2"/><path fill-rule="evenodd" class="a" d="m372.2 945.6l-460.2-460.2"/><path fill-rule="evenodd" class="a" d="m372.2 968.5l-482.7-482.7"/><path fill-rule="evenodd" class="a" d="m349.2 968.4l-459.7-459.7"/><path fill-rule="evenodd" class="a" d="m326.3 968.4l-436.9-436.8"/><path fill-rule="evenodd" class="a" d="m303.3 968.4l-413.8-413.9"/><path fill-rule="evenodd" class="a" d="m280.4 968.4l-390.9-390.9"/><path fill-rule="evenodd" class="a" d="m257.5 968.4l-368-368"/><path fill-rule="evenodd" class="a" d="m234.6 968.4l-345.1-345.1"/><path fill-rule="evenodd" class="a" d="m211.7 968.4l-322.2-322.2"/><path fill-rule="evenodd" class="a" d="m188.7 968.4l-299.2-299.2"/><path fill-rule="evenodd" class="a" d="m165.8 968.4l-276.4-276.4"/><path fill-rule="evenodd" class="a" d="m142.9 968.4l-253.4-253.4"/><path fill-rule="evenodd" class="a" d="m120 968.4l-230.5-230.4"/><path fill-rule="evenodd" class="a" d="m97.1 968.5l-207.6-207.6"/><path fill-rule="evenodd" class="a" d="m74.1 968.4l-184.6-184.6"/><path fill-rule="evenodd" class="a" d="m51.2 968.4l-161.7-161.7"/><path fill-rule="evenodd" class="a" d="m28.3 968.4l-138.8-138.8"/><path fill-rule="evenodd" class="a" d="m5.4 968.4l-115.9-115.8"/><path fill-rule="evenodd" class="a" d="m-17.5 968.5l-93.1-93.1"/><path fill-rule="evenodd" class="a" d="m-40.5 968.4l-70-70"/><path fill-rule="evenodd" class="a" d="m-63.4 968.4l-47.1-47"/><path fill-rule="evenodd" class="a" d="m-86.3 968.4l-24.2-24.2"/><path fill-rule="evenodd" class="a" d="m-108.8 968.8l-2.2-2.1"/></g><g clip-path="url(#cp4)"><path fill-rule="evenodd" class="a" d="m372.2 991.5l-24.4-24.3"/><path fill-rule="evenodd" class="a" d="m372.9 969.4l-3-3"/><path fill-rule="evenodd" class="a" d="m372.1 1014.4l-47.2-47.2"/><path fill-rule="evenodd" class="a" d="m372.2 1037.4l-70.2-70.2"/><path fill-rule="evenodd" class="a" d="m372.2 1060.3l-93.1-93.1"/><path fill-rule="evenodd" class="a" d="m372.2 1083.2l-116.1-116"/><path fill-rule="evenodd" class="a" d="m372.2 1106.1l-139-138.9"/><path fill-rule="evenodd" class="a" d="m372.2 1129l-161.9-161.9"/><path fill-rule="evenodd" class="a" d="m372.2 1152l-184.9-184.9"/><path fill-rule="evenodd" class="a" d="m372.2 1174.9l-207.7-207.7"/><path fill-rule="evenodd" class="a" d="m372.2 1197.8l-230.9-230.8"/><path fill-rule="evenodd" class="a" d="m372.2 1220.7l-253.6-253.5"/><path fill-rule="evenodd" class="a" d="m372.2 1243.6l-276.6-276.5"/><path fill-rule="evenodd" class="a" d="m372.2 1266.6l-299.5-299.5"/><path fill-rule="evenodd" class="a" d="m372.2 1289.5l-322.7-322.7"/><path fill-rule="evenodd" class="a" d="m372.2 1312.4l-345.6-345.6"/><path fill-rule="evenodd" class="a" d="m372.2 1335.3l-368.5-368.5"/><path fill-rule="evenodd" class="a" d="m372.2 1358.2l-391.5-391.4"/><path fill-rule="evenodd" class="a" d="m372.2 1381.2l-414.1-414"/><path fill-rule="evenodd" class="a" d="m372.2 1404.1l-437.2-437.1"/><path fill-rule="evenodd" class="a" d="m372.2 1427l-460.2-460.2"/><path fill-rule="evenodd" class="a" d="m372.2 1449.9l-482.7-482.7"/><path fill-rule="evenodd" class="a" d="m349.2 1449.9l-459.7-459.8"/><path fill-rule="evenodd" class="a" d="m326.3 1449.9l-436.9-436.8"/><path fill-rule="evenodd" class="a" d="m303.3 1449.9l-413.8-413.9"/><path fill-rule="evenodd" class="a" d="m280.4 1449.8l-390.9-390.9"/><path fill-rule="evenodd" class="a" d="m257.5 1449.9l-368-368"/><path fill-rule="evenodd" class="a" d="m234.6 1449.8l-345.1-345.1"/><path fill-rule="evenodd" class="a" d="m211.7 1449.9l-322.2-322.2"/><path fill-rule="evenodd" class="a" d="m188.7 1449.9l-299.2-299.3"/><path fill-rule="evenodd" class="a" d="m165.8 1449.9l-276.4-276.4"/><path fill-rule="evenodd" class="a" d="m142.9 1449.9l-253.4-253.4"/><path fill-rule="evenodd" class="a" d="m120 1449.9l-230.5-230.5"/><path fill-rule="evenodd" class="a" d="m97.1 1449.9l-207.6-207.6"/><path fill-rule="evenodd" class="a" d="m74.1 1449.9l-184.6-184.7"/><path fill-rule="evenodd" class="a" d="m51.2 1449.8l-161.7-161.7"/><path fill-rule="evenodd" class="a" d="m28.3 1449.9l-138.8-138.9"/><path fill-rule="evenodd" class="a" d="m5.4 1449.9l-115.9-115.9"/><path fill-rule="evenodd" class="a" d="m-17.5 1449.9l-93.1-93.1"/><path fill-rule="evenodd" class="a" d="m-40.5 1449.9l-70-70.1"/><path fill-rule="evenodd" class="a" d="m-63.4 1449.8l-47.1-47"/><path fill-rule="evenodd" class="a" d="m-86.3 1449.9l-24.2-24.3"/><path fill-rule="evenodd" class="a" d="m-108.8 1450.2l-2.2-2"/></g></g><path fill-rule="evenodd" class="b" d="m371.4 5v1009.1h-371.1v-1009.1z"/><path fill-rule="evenodd" class="a" d="m370.9 5.5v1008.1h-370.1v-1008.1z"/><path fill-rule="evenodd" class="c" d="m376.4 0v11h-10.9v-11z"/><path fill-rule="evenodd" class="c" d="m376.4 1009.1v11h-10.9v-11z"/></svg>